<?xml version="1.0" encoding="UTF-8" standalone="no"?>
<svg
   xmlns:dc="http://purl.org/dc/elements/1.1/"
   xmlns:cc="http://creativecommons.org/ns#"
   xmlns:rdf="http://www.w3.org/1999/02/22-rdf-syntax-ns#"
   xmlns:svg="http://www.w3.org/2000/svg"
   xmlns="http://www.w3.org/2000/svg"
   viewBox="0 0 700 457.09998"
   height="457.10001"
   width="700"
   xml:space="preserve"
   version="1.1"
   id="svg2"><metadata
     id="metadata8"><rdf:RDF><cc:Work
         rdf:about=""><dc:format>image/svg+xml</dc:format><dc:type
           rdf:resource="http://purl.org/dc/dcmitype/StillImage" /><dc:title></dc:title></cc:Work></rdf:RDF></metadata><defs
     id="defs6"><clipPath
       id="clipPath88"
       clipPathUnits="userSpaceOnUse"><path
         id="path90"
         d="m 0,0 595.276,0 0,841.89 L 0,841.89 0,0 Z" /></clipPath></defs><g
     transform="matrix(1.25,0,0,-1.25,0,457.09995)"
     id="g10"><g
       transform="matrix(3.4553611,0,0,3.4553611,-1387.8423,-2461.5544)"
       id="g84"><g
         clip-path="url(#clipPath88)"
         id="g86"><path
           id="path92"
           style="fill:#1f82c0;fill-opacity:1;fill-rule:nonzero;stroke:none"
           d="m 437.239,789.356 -0.006,0 c 39.473,-50.412 68.977,-32.458 64.92,-14.508 -2.818,12.472 -21.828,24.947 -64.914,14.508" /><path
           id="path94"
           style="fill:#95c154;fill-opacity:1;fill-rule:nonzero;stroke:none"
           d="m 484.139,818.216 c -10.27,0 -18.483,-10.471 -13.105,-25.101 19.658,-1.181 29.182,-9.725 31.118,-18.267 1,-4.407 -0.03,-8.814 -2.729,-12.205 3.167,-2.066 6.633,-4.135 10.412,-6.198 l 0,-0.003 c 3.312,45.315 -12.809,61.774 -25.696,61.774" /><path
           id="path96"
           style="fill:#007ba5;fill-opacity:1;fill-rule:nonzero;stroke:none"
           d="m 471.035,793.114 c 3.33,-9.06 11.886,-19.717 28.389,-30.473 2.699,3.395 3.729,7.802 2.729,12.206 -1.939,8.544 -11.46,17.089 -31.118,18.267" /><path
           id="path98"
           style="fill:#000000;fill-opacity:1;fill-rule:nonzero;stroke:none"
           d="m 557.506,739.591 c 1.252,0 2.268,-1.006 2.268,-2.282 0,-1.266 -1.016,-2.293 -2.268,-2.293 -1.275,0 -2.287,1.027 -2.287,2.293 0,1.276 1.012,2.282 2.287,2.282 m 0,3.043 c -3.519,0 -6.011,-2.229 -6.011,-5.348 0,-3.152 2.492,-5.381 6.011,-5.381 3.499,0 5.991,2.229 5.991,5.381 0,3.119 -2.492,5.348 -5.991,5.348 m -8.017,5.789 -3.525,0 0,-16.139 3.525,0 0,16.139 z m -11.919,-8.852 c 1.258,0 2.264,-1.01 2.264,-2.262 0,-1.266 -1.006,-2.278 -2.264,-2.278 -1.261,0 -2.27,1.012 -2.27,2.278 0,1.252 1.009,2.262 2.27,2.262 m 5.618,2.687 -3.519,0 0,-1.03 c -0.841,0.941 -1.708,1.317 -2.978,1.317 -2.885,0 -5.07,-2.335 -5.07,-5.416 0,-2.96 2.025,-5.043 4.878,-5.043 1.32,0 2.107,0.325 3.17,1.299 l 0,-0.923 c 0,-1.504 -0.862,-2.407 -2.297,-2.407 -0.873,0 -1.432,0.329 -1.669,1.013 l -3.972,0 c 0.399,-2.309 2.675,-3.824 5.685,-3.824 1.897,0 3.368,0.527 4.422,1.598 1.039,1.045 1.35,2.007 1.35,4.123 l 0,9.293 z m -19.203,-2.687 c 1.252,0 2.259,-1.01 2.259,-2.262 0,-1.266 -1.007,-2.278 -2.259,-2.278 -1.26,0 -2.276,1.012 -2.276,2.278 0,1.252 1.016,2.262 2.276,2.262 m 5.612,2.687 -3.525,0 0,-1.03 c -0.835,0.941 -1.693,1.317 -2.966,1.317 -2.891,0 -5.075,-2.335 -5.075,-5.416 0,-2.96 2.036,-5.043 4.88,-5.043 1.311,0 2.104,0.325 3.161,1.299 l 0,-0.923 c 0,-1.504 -0.855,-2.407 -2.285,-2.407 -0.876,0 -1.438,0.329 -1.675,1.013 l -3.96,0 c 0.397,-2.309 2.655,-3.824 5.674,-3.824 1.906,0 3.374,0.527 4.43,1.598 1.039,1.045 1.341,2.007 1.341,4.123 l 0,9.293 z m -18.522,-4.511 -3.166,0 1.607,4.686 1.559,-4.686 z m 1.033,-2.906 0.947,-2.557 4.073,0 -5.52,14.689 -4.173,0 -5.632,-14.689 4.025,0 1.018,2.557 5.262,0 z m -24.6,2.664 c 0.263,1.826 1.66,3.143 3.35,3.143 1.622,0 2.954,-1.246 3.285,-3.143 l -6.635,0 z m 7.645,-0.838 c -0.048,2.904 -1.758,4.801 -4.316,4.801 -2.465,0 -4.362,-2.054 -4.362,-4.697 0,-2.726 1.85,-4.733 4.362,-4.733 1.788,0 3.105,0.802 4.025,2.442 l -0.742,0.447 c -0.865,-1.456 -1.806,-2.072 -3.176,-2.072 -2.019,0 -3.416,1.501 -3.498,3.812 l 7.707,0 z m -10.886,3.348 c -0.506,0.923 -1.311,1.453 -2.282,1.453 -1.394,0 -2.471,-0.995 -2.471,-2.315 0,-1.121 0.689,-1.758 2.637,-2.462 1.329,-0.488 1.746,-0.935 1.746,-1.808 0,-1.149 -0.855,-2.028 -2.001,-2.028 -1.101,0 -1.829,0.592 -2.249,1.829 l -0.861,-0.266 c 0.464,-1.518 1.562,-2.38 3.11,-2.38 1.678,0 2.913,1.19 2.913,2.803 0,0.85 -0.291,1.513 -0.882,1.959 -0.424,0.299 -0.598,0.391 -1.753,0.814 -1.358,0.521 -1.752,0.876 -1.752,1.631 0,0.722 0.722,1.403 1.519,1.403 0.713,0 1.213,-0.332 1.586,-1.033 l 0.74,0.4 z m -7.521,0 c -0.509,0.923 -1.328,1.453 -2.29,1.453 -1.388,0 -2.472,-0.995 -2.472,-2.315 0,-1.121 0.681,-1.758 2.646,-2.462 1.317,-0.488 1.735,-0.935 1.735,-1.808 0,-1.149 -0.862,-2.028 -2.001,-2.028 -1.098,0 -1.826,0.592 -2.255,1.829 l -0.856,-0.266 c 0.471,-1.518 1.572,-2.38 3.111,-2.38 1.678,0 2.903,1.19 2.903,2.803 0,0.85 -0.278,1.513 -0.879,1.959 -0.417,0.299 -0.589,0.391 -1.734,0.814 -1.367,0.521 -1.77,0.876 -1.77,1.631 0,0.722 0.728,1.403 1.527,1.403 0.705,0 1.202,-0.332 1.584,-1.033 l 0.751,0.4 z m -12.294,0.633 c 2.093,0 3.593,-1.536 3.593,-3.72 0,-2.421 -1.438,-4.073 -3.549,-4.073 -2.003,0 -3.525,1.696 -3.525,3.966 0,2.155 1.522,3.827 3.481,3.827 m 3.525,0.616 0,-1.563 c -0.909,1.19 -2.024,1.767 -3.504,1.767 -2.602,0 -4.404,-1.897 -4.404,-4.647 0,-2.8 1.85,-4.783 4.451,-4.783 1.433,0 2.661,0.663 3.457,1.853 l 0,-1.607 0.879,0 0,8.98 -0.879,0 z m -21.605,0 0,-8.98 0.879,0 0,5.197 c 0,2.022 0.84,3.167 2.29,3.167 1.282,0 1.977,-0.9 1.977,-2.596 l 0,-5.768 0.888,0 0,5.41 c 0,1.921 0.811,2.954 2.306,2.954 1.364,0 1.965,-0.722 1.965,-2.374 l 0,-5.99 0.873,0 0,5.875 c 0,1.219 -0.121,1.79 -0.547,2.314 -0.486,0.622 -1.32,0.995 -2.267,0.995 -1.229,0 -2.093,-0.512 -2.664,-1.634 -0.53,1.104 -1.341,1.634 -2.51,1.634 -1.039,0 -1.737,-0.397 -2.311,-1.326 l 0,1.122 -0.879,0 z m -10.202,-3.759 c 0.266,1.826 1.654,3.143 3.353,3.143 1.631,0 2.948,-1.246 3.276,-3.143 l -6.629,0 z m 7.644,-0.838 c -0.047,2.904 -1.761,4.801 -4.315,4.801 -2.474,0 -4.362,-2.054 -4.362,-4.697 0,-2.726 1.844,-4.733 4.362,-4.733 1.782,0 3.102,0.802 4.028,2.442 l -0.746,0.447 c -0.864,-1.456 -1.811,-2.072 -3.166,-2.072 -2.037,0 -3.416,1.501 -3.513,3.812 l 7.712,0 z m -17.793,4.597 0,-8.98 0.882,0 0,4.664 c 0,2.466 0.879,3.7 2.616,3.7 1.539,0 2.152,-0.767 2.152,-2.711 l 0,-5.653 0.888,0 0,5.653 c 0,1.083 -0.127,1.764 -0.438,2.273 -0.471,0.775 -1.436,1.258 -2.489,1.258 -1.19,0 -2.001,-0.465 -2.729,-1.61 l 0,1.406 -0.882,0 z m -9.684,0 0,-8.98 0.873,0 0,4.664 c 0,2.466 0.879,3.7 2.616,3.7 1.548,0 2.161,-0.767 2.161,-2.711 l 0,-5.653 0.888,0 0,5.653 c 0,1.083 -0.136,1.764 -0.447,2.273 -0.462,0.775 -1.427,1.258 -2.486,1.258 -1.184,0 -2.004,-0.465 -2.732,-1.61 l 0,1.406 -0.873,0 z m -5.233,-3.28 -5.552,0 2.806,6.961 2.746,-6.961 z m 0.358,-0.885 1.942,-4.815 1.074,0 -6.12,15.124 -6.171,-15.124 1.059,0 1.96,4.815" /><path
           id="path100"
           style="fill:#1f82c0;fill-opacity:1;fill-rule:nonzero;stroke:none"
           d="m 404.795,721.559 -1.471,-3.632 2.942,0 -1.471,3.632 z m -1.654,-4.079 -1.001,-2.471 -0.491,0 3.146,7.766 3.146,-7.766 -0.494,0 -1.006,2.471" /><path
           id="path102"
           style="fill:#1f82c0;fill-opacity:1;fill-rule:nonzero;stroke:none"
           d="m 409.202,718.9 0.02,0 c 0.276,0.506 0.767,0.814 1.368,0.814 1.189,0 1.515,-0.734 1.515,-1.924 l 0,-2.779 -0.447,0 0,2.779 c 0,0.829 -0.098,1.512 -1.107,1.512 -1.16,0 -1.349,-1.08 -1.349,-2.018 l 0,-2.273 -0.447,0 0,4.605 0.447,0" /><path
           id="path104"
           style="fill:#1f82c0;fill-opacity:1;fill-rule:nonzero;stroke:none"
           d="m 414.093,718.9 0.015,0 c 0.272,0.506 0.773,0.814 1.364,0.814 1.199,0 1.519,-0.734 1.519,-1.924 l 0,-2.779 -0.447,0 0,2.779 c 0,0.829 -0.101,1.512 -1.11,1.512 -1.157,0 -1.341,-1.08 -1.341,-2.018 l 0,-2.273 -0.447,0 0,4.605 0.447,0" /><path
           id="path106"
           style="fill:#1f82c0;fill-opacity:1;fill-rule:nonzero;stroke:none"
           d="m 422.079,717.694 c -0.115,0.841 -0.811,1.607 -1.761,1.607 -0.932,0 -1.704,-0.742 -1.787,-1.607 l 3.548,0 z m -3.548,-0.423 c -0.039,-1.166 0.772,-1.941 1.841,-1.941 0.722,0 1.296,0.429 1.63,1.05 l 0.382,-0.225 c -0.426,-0.796 -1.163,-1.243 -2.072,-1.243 -1.367,0 -2.231,1.104 -2.231,2.415 0,1.279 0.888,2.389 2.231,2.389 1.403,0 2.229,-1.113 2.214,-2.445" /><path
           id="path108"
           style="fill:#1f82c0;fill-opacity:1;fill-rule:nonzero;stroke:none"
           d="m 424.066,719.036 0.015,0 c 0.204,0.432 0.666,0.677 1.16,0.677 0.583,0 1.054,-0.296 1.29,-0.837 0.249,0.553 0.758,0.837 1.35,0.837 1.181,0 1.427,-0.802 1.427,-1.814 l 0,-2.888 -0.45,0 0,2.944 c 0,0.714 -0.113,1.347 -0.986,1.347 -0.965,0 -1.19,-0.838 -1.19,-1.637 l 0,-2.654 -0.446,0 0,2.844 c 0,0.713 -0.131,1.447 -1.033,1.447 -0.962,0 -1.137,-1.012 -1.137,-1.758 l 0,-2.533 -0.456,0 0,4.605 0.456,0" /><path
           id="path110"
           style="fill:#1f82c0;fill-opacity:1;fill-rule:nonzero;stroke:none"
           d="m 430.838,717.342 c 0,-1.057 0.699,-2.013 1.811,-2.013 1.178,0 1.815,0.956 1.815,2.066 0,1.069 -0.722,1.906 -1.838,1.906 -1.051,0 -1.788,-0.959 -1.788,-1.959 m 4.049,-2.332 -0.447,0 0,0.825 -0.024,0 c -0.34,-0.583 -1.074,-0.923 -1.749,-0.923 -1.397,0 -2.276,1.089 -2.276,2.43 0,1.349 0.873,2.374 2.252,2.374 0.714,0 1.389,-0.323 1.773,-0.9 l 0.024,0 0,0.802 0.447,0" /><path
           id="path112"
           style="fill:#1f82c0;fill-opacity:1;fill-rule:nonzero;stroke:none"
           d="m 438.354,718.778 c -0.145,0.314 -0.446,0.524 -0.805,0.524 -0.384,0 -0.781,-0.323 -0.781,-0.722 0,-1.104 2.238,-0.568 2.238,-2.232 0,-0.849 -0.652,-1.438 -1.477,-1.438 -0.776,0 -1.403,0.468 -1.593,1.222 l 0.438,0.133 c 0.175,-0.55 0.539,-0.935 1.155,-0.935 0.568,0 1.03,0.453 1.03,1.039 0,0.568 -0.441,0.743 -0.894,0.903 -0.639,0.231 -1.35,0.503 -1.35,1.275 0,0.702 0.589,1.166 1.258,1.166 0.471,0 0.971,-0.307 1.175,-0.734" /><path
           id="path114"
           style="fill:#1f82c0;fill-opacity:1;fill-rule:nonzero;stroke:none"
           d="m 442.1,718.778 c -0.151,0.314 -0.456,0.524 -0.811,0.524 -0.388,0 -0.79,-0.323 -0.79,-0.722 0,-1.104 2.246,-0.568 2.246,-2.232 0,-0.849 -0.66,-1.438 -1.485,-1.438 -0.776,0 -1.397,0.468 -1.587,1.222 l 0.432,0.133 c 0.175,-0.55 0.548,-0.935 1.155,-0.935 0.574,0 1.036,0.453 1.036,1.039 0,0.568 -0.438,0.743 -0.894,0.903 -0.628,0.231 -1.35,0.503 -1.35,1.275 0,0.702 0.592,1.166 1.258,1.166 0.465,0 0.98,-0.307 1.178,-0.734" /><path
           id="path116"
           style="fill:#1f82c0;fill-opacity:1;fill-rule:nonzero;stroke:none"
           d="m 447.455,717.694 c -0.116,0.841 -0.811,1.607 -1.759,1.607 -0.941,0 -1.713,-0.742 -1.799,-1.607 l 3.558,0 z m -3.558,-0.423 c -0.021,-1.166 0.781,-1.941 1.85,-1.941 0.716,0 1.29,0.429 1.625,1.05 l 0.378,-0.225 c -0.417,-0.796 -1.16,-1.243 -2.062,-1.243 -1.365,0 -2.238,1.104 -2.238,2.415 0,1.279 0.888,2.389 2.238,2.389 1.397,0 2.222,-1.113 2.213,-2.445" /><path
           id="path118"
           style="fill:#1f82c0;fill-opacity:1;fill-rule:nonzero;stroke:none"
           d="m 451.305,717.966 1.897,0 0,0.45496 -1.897,0 0,-0.45496 z" /><path
           id="path120"
           style="fill:#1f82c0;fill-opacity:1;fill-rule:nonzero;stroke:none"
           d="m 457.579,715.457 1.912,0 0,-0.446 -2.391,0 0,7.52 0.479,0" /><path
           id="path122"
           style="fill:#1f82c0;fill-opacity:1;fill-rule:nonzero;stroke:none"
           d="m 463.873,717.694 c -0.113,0.841 -0.808,1.607 -1.758,1.607 -0.933,0 -1.714,-0.742 -1.791,-1.607 l 3.549,0 z m -3.549,-0.423 c -0.026,-1.166 0.779,-1.941 1.844,-1.941 0.71,0 1.288,0.429 1.625,1.05 l 0.376,-0.225 c -0.417,-0.796 -1.151,-1.243 -2.072,-1.243 -1.355,0 -2.226,1.104 -2.226,2.415 0,1.279 0.888,2.389 2.226,2.389 1.406,0 2.232,-1.113 2.223,-2.445" /><path
           id="path124"
           style="fill:#1f82c0;fill-opacity:1;fill-rule:nonzero;stroke:none"
           d="m 467.341,718.778 c -0.145,0.314 -0.447,0.524 -0.802,0.524 -0.388,0 -0.793,-0.323 -0.793,-0.722 0,-1.104 2.24,-0.568 2.24,-2.232 0,-0.849 -0.651,-1.438 -1.477,-1.438 -0.778,0 -1.4,0.468 -1.589,1.222 l 0.432,0.133 c 0.175,-0.55 0.539,-0.935 1.157,-0.935 0.566,0 1.027,0.453 1.027,1.039 0,0.568 -0.432,0.743 -0.894,0.903 -0.63,0.231 -1.34,0.503 -1.34,1.275 0,0.702 0.583,1.166 1.249,1.166 0.473,0 0.979,-0.307 1.178,-0.734" /><path
           id="path126"
           style="fill:#1f82c0;fill-opacity:1;fill-rule:nonzero;stroke:none"
           d="m 474.226,716.105 0.023,0 2.232,6.425 0.468,0 -2.729,-7.766 -2.699,7.766 0.476,0" /><path
           id="path128"
           style="fill:#1f82c0;fill-opacity:1;fill-rule:nonzero;stroke:none"
           d="m 476.971,717.301 c 0,-1.044 0.826,-1.971 1.918,-1.971 1.134,0 2.004,0.858 2.004,1.971 0,1.137 -0.864,2.001 -2.004,2.001 -1.098,0 -1.918,-0.932 -1.918,-2.001 m 4.372,0.015 c 0,-1.37 -1.072,-2.406 -2.43,-2.406 -1.317,0 -2.386,1.092 -2.386,2.391 0,1.326 1.051,2.412 2.386,2.412 1.358,0 2.43,-1.032 2.43,-2.397" /><path
           id="path130"
           style="fill:#1f82c0;fill-opacity:1;fill-rule:nonzero;stroke:none"
           d="m 483.048,715.009 -0.444,0 0,4.608 0.444,0 0,-4.608 z m 0.189,6.141 c 0,-0.231 -0.181,-0.405 -0.408,-0.405 -0.228,0 -0.412,0.174 -0.412,0.405 0,0.219 0.184,0.409 0.412,0.409 0.227,0 0.408,-0.19 0.408,-0.409" /><path
           id="path132"
           style="fill:#1f82c0;fill-opacity:1;fill-rule:nonzero;stroke:none"
           d="m 485.209,719.021 0.023,0 c 0.172,0.42 0.509,0.693 0.995,0.693 0.177,0 0.331,-0.039 0.491,-0.11 l -0.243,-0.393 c -0.112,0.056 -0.198,0.091 -0.319,0.091 -1.001,0 -0.947,-1.266 -0.947,-1.938 l 0,-2.353 -0.447,0 0,4.605 0.447,0" /><path
           id="path134"
           style="fill:#1f82c0;fill-opacity:1;fill-rule:nonzero;stroke:none"
           d="m 487.53,717.301 c 0,-1.044 0.834,-1.971 1.915,-1.971 1.124,0 2.006,0.858 2.006,1.971 0,1.137 -0.867,2.001 -2.006,2.001 -1.099,0 -1.915,-0.932 -1.915,-2.001 m 4.368,0.015 c 0,-1.37 -1.071,-2.406 -2.418,-2.406 -1.329,0 -2.397,1.092 -2.397,2.391 0,1.326 1.062,2.412 2.397,2.412 1.347,0 2.418,-1.032 2.418,-2.397" /><path
           id="path136"
           style="fill:#1f82c0;fill-opacity:1;fill-rule:nonzero;stroke:none"
           d="m 493.429,718.9 0.024,0 c 0.272,0.506 0.769,0.814 1.364,0.814 1.19,0 1.518,-0.734 1.518,-1.924 l 0,-2.779 -0.45,0 0,2.779 c 0,0.829 -0.097,1.512 -1.098,1.512 -1.169,0 -1.358,-1.08 -1.358,-2.018 l 0,-2.273 -0.444,0 0,4.605 0.444,0" /><path
           id="path138"
           style="fill:#1f82c0;fill-opacity:1;fill-rule:nonzero;stroke:none"
           d="m 499.808,718.778 c -0.154,0.314 -0.447,0.524 -0.802,0.524 -0.397,0 -0.796,-0.323 -0.796,-0.722 0,-1.104 2.243,-0.568 2.243,-2.232 0,-0.849 -0.66,-1.438 -1.486,-1.438 -0.766,0 -1.397,0.468 -1.583,1.222 l 0.438,0.133 c 0.168,-0.55 0.538,-0.935 1.145,-0.935 0.583,0 1.039,0.453 1.039,1.039 0,0.568 -0.441,0.743 -0.894,0.903 -0.63,0.231 -1.352,0.503 -1.352,1.275 0,0.702 0.595,1.166 1.258,1.166 0.473,0 0.976,-0.307 1.177,-0.734" /><path
           id="path140"
           style="fill:#1f82c0;fill-opacity:1;fill-rule:nonzero;stroke:none"
           d="m 507.134,721.559 -1.479,-3.632 2.941,0 -1.462,3.632 z m -1.663,-4.079 -0.997,-2.471 -0.495,0 3.155,7.766 3.141,-7.766 -0.489,0 -1.006,2.471" /><path
           id="path142"
           style="fill:#1f82c0;fill-opacity:1;fill-rule:nonzero;stroke:none"
           d="m 511.161,717.342 c 0,-1.057 0.695,-2.013 1.811,-2.013 1.178,0 1.817,0.956 1.817,2.066 0,1.069 -0.725,1.906 -1.844,1.906 -1.056,0 -1.784,-0.959 -1.784,-1.959 m 4.049,-2.11 c 0,-0.711 -0.024,-1.347 -0.462,-1.96 -0.435,-0.583 -1.107,-0.885 -1.832,-0.885 -1.208,0 -2.202,0.711 -2.279,1.975 l 0.459,0 c 0.044,-0.956 0.855,-1.551 1.778,-1.551 0.583,0 1.14,0.192 1.48,0.689 0.355,0.518 0.412,1.119 0.412,1.741 l 0,0.568 -0.024,0 c -0.411,-0.545 -1.101,-0.897 -1.797,-0.897 -1.337,0 -2.231,1.125 -2.231,2.415 0,1.326 0.941,2.389 2.299,2.389 0.74,0 1.294,-0.323 1.729,-0.9 l 0.024,0 0,0.802 0.444,0" /><path
           id="path144"
           style="fill:#1f82c0;fill-opacity:1;fill-rule:nonzero;stroke:none"
           d="m 516.811,717.342 c 0,-1.057 0.699,-2.013 1.812,-2.013 1.183,0 1.823,0.956 1.823,2.066 0,1.069 -0.731,1.906 -1.847,1.906 -1.06,0 -1.788,-0.959 -1.788,-1.959 m 4.049,-2.11 c 0,-0.711 -0.015,-1.347 -0.453,-1.96 -0.435,-0.583 -1.116,-0.885 -1.838,-0.885 -1.201,0 -2.205,0.711 -2.273,1.975 l 0.447,0 c 0.045,-0.956 0.859,-1.551 1.782,-1.551 0.574,0 1.136,0.192 1.477,0.689 0.358,0.518 0.411,1.119 0.411,1.741 l 0,0.568 -0.024,0 c -0.411,-0.545 -1.098,-0.897 -1.79,-0.897 -1.344,0 -2.235,1.125 -2.235,2.415 0,1.326 0.956,2.389 2.297,2.389 0.746,0 1.305,-0.323 1.728,-0.9 l 0.024,0 0,0.802 0.447,0" /><path
           id="path146"
           style="fill:#1f82c0;fill-opacity:1;fill-rule:nonzero;stroke:none"
           d="m 522.393,715.009 0.453,0 0,8.228 -0.453,0 0,-8.228 z" /><path
           id="path148"
           style="fill:#1f82c0;fill-opacity:1;fill-rule:nonzero;stroke:none"
           d="m 524.389,717.301 c 0,-1.044 0.826,-1.971 1.903,-1.971 1.128,0 2.01,0.858 2.01,1.971 0,1.137 -0.873,2.001 -2.01,2.001 -1.095,0 -1.903,-0.932 -1.903,-2.001 m 4.36,0.015 c 0,-1.37 -1.071,-2.406 -2.421,-2.406 -1.326,0 -2.394,1.092 -2.394,2.391 0,1.326 1.05,2.412 2.394,2.412 1.35,0 2.421,-1.032 2.421,-2.397" /><path
           id="path150"
           style="fill:#1f82c0;fill-opacity:1;fill-rule:nonzero;stroke:none"
           d="m 530.286,719.036 0.017,0 c 0.213,0.432 0.666,0.677 1.155,0.677 0.592,0 1.059,-0.296 1.296,-0.837 0.249,0.553 0.758,0.837 1.347,0.837 1.184,0 1.426,-0.802 1.426,-1.814 l 0,-2.888 -0.447,0 0,2.944 c 0,0.714 -0.112,1.347 -0.991,1.347 -0.959,0 -1.184,-0.838 -1.184,-1.637 l 0,-2.654 -0.45,0 0,2.844 c 0,0.713 -0.13,1.447 -1.03,1.447 -0.962,0 -1.139,-1.012 -1.139,-1.758 l 0,-2.533 -0.45,0 0,4.605 0.45,0" /><path
           id="path152"
           style="fill:#1f82c0;fill-opacity:1;fill-rule:nonzero;stroke:none"
           d="m 539.789,721.937 -1.234,-1.444 -0.379,0.169 1.006,1.465 0.607,-0.19 z m 0.82,-4.244 c -0.107,0.844 -0.802,1.607 -1.75,1.607 -0.944,0 -1.722,-0.743 -1.799,-1.607 l 3.549,0 z m -3.549,-0.42 c -0.024,-1.169 0.781,-1.942 1.85,-1.942 0.71,0 1.299,0.427 1.616,1.048 l 0.379,-0.222 c -0.412,-0.799 -1.146,-1.246 -2.063,-1.246 -1.365,0 -2.229,1.104 -2.229,2.415 0,1.279 0.888,2.389 2.229,2.389 1.397,0 2.231,-1.113 2.214,-2.442" /><path
           id="path154"
           style="fill:#1f82c0;fill-opacity:1;fill-rule:nonzero;stroke:none"
           d="m 542.598,719.021 0.024,0 c 0.172,0.42 0.506,0.693 0.992,0.693 0.18,0 0.325,-0.039 0.485,-0.11 l -0.234,-0.393 c -0.115,0.056 -0.21,0.091 -0.32,0.091 -1.009,0 -0.947,-1.266 -0.947,-1.938 l 0,-2.353 -0.449,0 0,4.605 0.449,0" /><path
           id="path156"
           style="fill:#1f82c0;fill-opacity:1;fill-rule:nonzero;stroke:none"
           d="m 544.916,717.342 c 0,-1.057 0.699,-2.013 1.815,-2.013 1.175,0 1.82,0.956 1.82,2.066 0,1.069 -0.728,1.906 -1.85,1.906 -1.057,0 -1.785,-0.959 -1.785,-1.959 m 4.043,-2.332 -0.441,0 0,0.825 -0.02,0 c -0.344,-0.583 -1.078,-0.923 -1.761,-0.923 -1.388,0 -2.265,1.089 -2.265,2.43 0,1.349 0.862,2.374 2.247,2.374 0.719,0 1.391,-0.323 1.779,-0.9 l 0.02,0 0,0.802 0.441,0" /><path
           id="path158"
           style="fill:#1f82c0;fill-opacity:1;fill-rule:nonzero;stroke:none"
           d="m 550.998,715.009 -0.45,0 0,4.188 -0.503,0 0,0.421 0.503,0 0,1.639 0.45,0 0,-1.639 0.805,0 0,-0.421 -0.805,0" /><path
           id="path160"
           style="fill:#1f82c0;fill-opacity:1;fill-rule:nonzero;stroke:none"
           d="m 553.2,715.009 -0.447,0 0,4.608 0.447,0 0,-4.608 z m 0.196,6.141 c 0,-0.231 -0.181,-0.405 -0.409,-0.405 -0.234,0 -0.411,0.174 -0.411,0.405 0,0.219 0.177,0.409 0.411,0.409 0.228,0 0.409,-0.19 0.409,-0.409" /><path
           id="path162"
           style="fill:#1f82c0;fill-opacity:1;fill-rule:nonzero;stroke:none"
           d="m 554.911,717.301 c 0,-1.044 0.826,-1.971 1.918,-1.971 1.133,0 2.003,0.858 2.003,1.971 0,1.137 -0.864,2.001 -2.003,2.001 -1.092,0 -1.918,-0.932 -1.918,-2.001 m 4.371,0.015 c 0,-1.37 -1.065,-2.406 -2.421,-2.406 -1.326,0 -2.394,1.092 -2.394,2.391 0,1.326 1.059,2.412 2.394,2.412 1.356,0 2.421,-1.032 2.421,-2.397" /><path
           id="path164"
           style="fill:#1f82c0;fill-opacity:1;fill-rule:nonzero;stroke:none"
           d="m 560.819,718.9 0.023,0 c 0.267,0.506 0.77,0.814 1.359,0.814 1.19,0 1.515,-0.734 1.515,-1.924 l 0,-2.779 -0.438,0 0,2.779 c 0,0.829 -0.106,1.512 -1.116,1.512 -1.154,0 -1.343,-1.08 -1.343,-2.018 l 0,-2.273 -0.444,0 0,4.605 0.444,0" /></g></g></g></svg>