<?xml version="1.0" encoding="UTF-8" standalone="no"?>
<!-- Created with Inkscape (http://www.inkscape.org/) -->

<svg
   version="1.1"
   id="svg2"
   width="600"
   height="200"
   viewBox="0 0 600 200"
   sodipodi:docname="logo-web.svg"
   inkscape:version="1.2 (dc2aedaf03, 2022-05-15)"
   xmlns:inkscape="http://www.inkscape.org/namespaces/inkscape"
   xmlns:sodipodi="http://sodipodi.sourceforge.net/DTD/sodipodi-0.dtd"
   xmlns="http://www.w3.org/2000/svg"
   xmlns:svg="http://www.w3.org/2000/svg">
  <defs
     id="defs6">
    <clipPath
       clipPathUnits="userSpaceOnUse"
       id="clipPath160">
      <path
         d="M 0,192.458 H 475.651 V 0 H 0 Z"
         id="path158" />
    </clipPath>
    <clipPath
       clipPathUnits="userSpaceOnUse"
       id="clipPath288">
      <path
         d="M 0,192.458 H 475.651 V 0 H 0 Z"
         id="path286" />
    </clipPath>
    <clipPath
       clipPathUnits="userSpaceOnUse"
       id="clipPath1500">
      <path
         d="m -260.6357,88.0284 h 475.651 v -192.458 h -475.651 z"
         id="path1502"
         style="stroke-width:0.999998" />
    </clipPath>
    <clipPath
       clipPathUnits="userSpaceOnUse"
       id="clipPath1504">
      <path
         d="M -402.0743,91.4219 H 73.57672 v -192.458 H -402.0743 Z"
         id="path1506"
         style="stroke-width:0.999998" />
    </clipPath>
    <clipPath
       clipPathUnits="userSpaceOnUse"
       id="clipPath1508">
      <path
         d="M -405.7664,149.3154 H 69.88462 V -43.1426 H -405.7664 Z"
         id="path1510"
         style="stroke-width:0.999998" />
    </clipPath>
    <clipPath
       clipPathUnits="userSpaceOnUse"
       id="clipPath1512">
      <path
         d="M -388.7781,150.2812 H 86.87292 V -42.1768 H -388.7781 Z"
         id="path1514"
         style="stroke-width:0.999998" />
    </clipPath>
    <clipPath
       clipPathUnits="userSpaceOnUse"
       id="clipPath1516">
      <path
         d="M -386.7605,149.1054 H 88.89052 V -43.3526 H -386.7605 Z"
         id="path1518"
         style="stroke-width:0.999998" />
    </clipPath>
    <clipPath
       clipPathUnits="userSpaceOnUse"
       id="clipPath1520">
      <path
         d="m -370.5701,153.7036 h 475.651 v -192.458 h -475.651 z"
         id="path1522"
         style="stroke-width:0.999998" />
    </clipPath>
    <clipPath
       clipPathUnits="userSpaceOnUse"
       id="clipPath1524">
      <path
         d="m -364.0808,149.1054 h 475.651 v -192.458 h -475.651 z"
         id="path1526"
         style="stroke-width:0.999998" />
    </clipPath>
    <clipPath
       clipPathUnits="userSpaceOnUse"
       id="clipPath1528">
      <path
         d="m -353.3718,145.3051 h 475.651 v -192.458 h -475.651 z"
         id="path1530"
         style="stroke-width:0.999998" />
    </clipPath>
    <clipPath
       clipPathUnits="userSpaceOnUse"
       id="clipPath1532">
      <path
         d="m -342.5554,149.3154 h 475.651 v -192.458 h -475.651 z"
         id="path1534"
         style="stroke-width:0.999998" />
    </clipPath>
    <clipPath
       clipPathUnits="userSpaceOnUse"
       id="clipPath1536">
      <path
         d="m -334.4089,154.4384 h 475.651 v -192.458 h -475.651 z"
         id="path1538"
         style="stroke-width:0.999998" />
    </clipPath>
    <clipPath
       clipPathUnits="userSpaceOnUse"
       id="clipPath1540">
      <path
         d="m -314.9001,153.7036 h 475.651 v -192.458 h -475.651 z"
         id="path1542"
         style="stroke-width:0.999998" />
    </clipPath>
    <clipPath
       clipPathUnits="userSpaceOnUse"
       id="clipPath1544">
      <path
         d="m -280.3328,149.1054 h 475.651 v -192.458 h -475.651 z"
         id="path1546"
         style="stroke-width:0.999998" />
    </clipPath>
    <clipPath
       clipPathUnits="userSpaceOnUse"
       id="clipPath1548">
      <path
         d="m -266.5359,149.3154 h 475.651 v -192.458 h -475.651 z"
         id="path1550"
         style="stroke-width:0.999998" />
    </clipPath>
    <clipPath
       clipPathUnits="userSpaceOnUse"
       id="clipPath1552">
      <path
         d="m -252.5906,149.1054 h 475.651 v -192.458 h -475.651 z"
         id="path1554"
         style="stroke-width:0.999998" />
    </clipPath>
    <clipPath
       clipPathUnits="userSpaceOnUse"
       id="clipPath1556">
      <path
         d="m -238.7312,150.2602 h 475.651 v -192.458 h -475.651 z"
         id="path1558"
         style="stroke-width:0.999998" />
    </clipPath>
    <clipPath
       clipPathUnits="userSpaceOnUse"
       id="clipPath1560">
      <path
         d="m -224.5144,154.4384 h 475.651 v -192.458 h -475.651 z"
         id="path1562"
         style="stroke-width:0.999998" />
    </clipPath>
    <clipPath
       clipPathUnits="userSpaceOnUse"
       id="clipPath1564">
      <path
         d="m -210.2781,153.7036 h 475.651 v -192.458 h -475.651 z"
         id="path1566"
         style="stroke-width:0.999998" />
    </clipPath>
    <clipPath
       clipPathUnits="userSpaceOnUse"
       id="clipPath1568">
      <path
         d="m -203.7654,148.8955 h 475.651 v -192.458 h -475.651 z"
         id="path1570"
         style="stroke-width:0.999998" />
    </clipPath>
    <clipPath
       clipPathUnits="userSpaceOnUse"
       id="clipPath1572">
      <path
         d="m -186.7781,145.3051 h 475.651 v -192.458 h -475.651 z"
         id="path1574"
         style="stroke-width:0.999998" />
    </clipPath>
    <clipPath
       clipPathUnits="userSpaceOnUse"
       id="clipPath1576">
      <path
         d="m -175.9011,150.2602 h 475.651 v -192.458 h -475.651 z"
         id="path1578"
         style="stroke-width:0.999998" />
    </clipPath>
    <clipPath
       clipPathUnits="userSpaceOnUse"
       id="clipPath1580">
      <path
         d="m -160.4031,143.9194 h 475.651 v -192.458 h -475.651 z"
         id="path1582"
         style="stroke-width:0.999998" />
    </clipPath>
    <clipPath
       clipPathUnits="userSpaceOnUse"
       id="clipPath1584">
      <path
         d="m -141.7698,37.1836 h 475.651 v -192.458 h -475.651 z"
         id="path1586"
         style="stroke-width:0.999998" />
    </clipPath>
    <clipPath
       clipPathUnits="userSpaceOnUse"
       id="clipPath1588">
      <path
         d="m -158.034,68.8146 h 475.651 v -192.458 h -475.651 z"
         id="path1590"
         style="stroke-width:0.999998" />
    </clipPath>
    <clipPath
       clipPathUnits="userSpaceOnUse"
       id="clipPath1592">
      <path
         d="m -332.2712,107.3341 h 475.651 v -192.458 h -475.651 z"
         id="path1594"
         style="stroke-width:0.999998" />
    </clipPath>
  </defs>
  <sodipodi:namedview
     id="namedview4"
     pagecolor="#ffffff"
     bordercolor="#666666"
     borderopacity="1.0"
     inkscape:showpageshadow="2"
     inkscape:pageopacity="0.0"
     inkscape:pagecheckerboard="true"
     inkscape:deskcolor="#d1d1d1"
     showgrid="false"
     inkscape:zoom="1.046198"
     inkscape:cx="383.7706"
     inkscape:cy="244.2176"
     inkscape:window-width="1816"
     inkscape:window-height="1057"
     inkscape:window-x="96"
     inkscape:window-y="-8"
     inkscape:window-maximized="1"
     inkscape:current-layer="g10" />
  <g
     id="g10"
     inkscape:groupmode="layer"
     inkscape:label="Page 1"
     transform="matrix(1.333333,0,0,-1.333333,0,256.6107)">
    <g
       id="g1652"
       transform="matrix(0.9505907,0,0,0.9505907,-1.667868,26.10519)">
      <path
         d="m 37.1633,43.5193 h 110.528"
         style="fill:none;stroke:#e52330;stroke-width:2.2;stroke-linecap:butt;stroke-linejoin:miter;stroke-miterlimit:10;stroke-dasharray:none;stroke-opacity:1"
         id="path14" />
      <path
         d="m 226.6548,133.6806 h -62.478 v -10.037 h 25.593 v -58.42 h 9.767 v 58.42 h 27.118 z"
         style="fill:#171110;fill-opacity:1;fill-rule:nonzero;stroke:none"
         id="path18" />
      <path
         d="m 99.6411,133.6806 h -62.478 v -10.037 h 25.593 v -58.42 h 9.767 v 58.42 h 27.118 z"
         style="fill:#171110;fill-opacity:1;fill-rule:nonzero;stroke:none"
         id="path22" />
      <g
         id="g32"
         transform="translate(332.2712,85.1239)"
         clip-path="url(#clipPath1592)">
        <path
           d="M 0,0 C -7.935,0 -15.435,-1.884 -22.089,-5.216 L -4.483,31.193 10.601,0 Z m 30.666,-19.901 -43.568,90.052 h -10.42 L -9.693,41.967 -39.515,-19.901 h 11.236 C -20.901,-12.903 -10.947,-8.4 0,-8.4 h 14.663 l 5.583,-11.501 z"
           style="fill:#171110;fill-opacity:1;fill-rule:nonzero;stroke:none"
           id="path34" />
      </g>
      <g
         id="g36"
         transform="translate(158.034,123.6434)"
         clip-path="url(#clipPath1588)">
        <path
           d="M 0,0 V 10.037 H -52.25 V -58.42 H 0 v 10.055 h -42.24 v 19.1 h 31.897 v 10.101 H -42.24 V 0 Z"
           style="fill:#171110;fill-opacity:1;fill-rule:nonzero;stroke:none"
           id="path38" />
      </g>
      <g
         id="g40"
         transform="translate(141.7698,155.2744)"
         clip-path="url(#clipPath1584)">
        <path
           d="m 0,0 h -9.992 l -6.704,-13.828 h 9.992 z"
           style="fill:#171110;fill-opacity:1;fill-rule:nonzero;stroke:none"
           id="path42" />
      </g>
      <g
         id="g44"
         transform="translate(160.4031,48.5386)"
         clip-path="url(#clipPath1580)">
        <path
           d="M 0,0 V -3.905 H 5.48 C 5.564,-4.262 5.585,-4.619 5.585,-4.976 5.585,-5.333 5.564,-5.69 5.48,-6.047 H 0 v -5.249 c -0.398,-0.084 -0.777,-0.126 -1.197,-0.126 -0.377,0 -0.777,0.042 -1.176,0.126 V 2.184 H 6.173 C 6.257,1.827 6.277,1.449 6.277,1.092 6.277,0.735 6.257,0.357 6.173,0 Z"
           style="fill:#171110;fill-opacity:1;fill-rule:nonzero;stroke:none"
           id="path46" />
      </g>
      <g
         id="g48"
         transform="translate(175.9011,42.1978)"
         clip-path="url(#clipPath1576)">
        <path
           d="m 0,0 c 0,1.911 -1.092,3.233 -2.877,3.233 -1.785,0 -2.877,-1.322 -2.877,-3.233 0,-1.89 1.092,-3.191 2.877,-3.191 C -1.092,-3.191 0,-1.89 0,0 m -8.146,0 c 0,3.086 2.246,5.291 5.311,5.291 3.065,0 5.228,-2.184 5.228,-5.291 0,-3.065 -2.247,-5.27 -5.312,-5.27 -3.065,0 -5.227,2.163 -5.227,5.27"
           style="fill:#171110;fill-opacity:1;fill-rule:nonzero;stroke:none"
           id="path50" />
      </g>
      <g
         id="g52"
         transform="translate(186.7781,47.1529)"
         clip-path="url(#clipPath1572)">
        <path
           d="m 0,0 c 0,-0.756 -0.209,-1.512 -0.629,-2.058 -0.483,0.126 -0.987,0.189 -1.512,0.189 -0.777,0 -1.427,-0.147 -1.869,-0.399 V -9.91 c -0.378,-0.084 -0.798,-0.105 -1.197,-0.105 -0.398,0 -0.797,0.021 -1.196,0.105 v 8.797 c 0.756,0.672 2.288,1.428 4.199,1.428 C -1.344,0.315 -0.629,0.231 0,0"
           style="fill:#171110;fill-opacity:1;fill-rule:nonzero;stroke:none"
           id="path54" />
      </g>
      <g
         id="g56"
         transform="translate(203.7654,43.5625)"
         clip-path="url(#clipPath1568)">
        <path
           d="m 0,0 v -6.32 c -0.378,-0.084 -0.798,-0.105 -1.176,-0.105 -0.42,0 -0.819,0.021 -1.196,0.105 v 5.606 c 0,1.428 -0.631,2.457 -2.247,2.457 -0.966,0 -1.638,-0.42 -2.12,-0.819 C -6.677,0.63 -6.635,0.315 -6.635,0 v -6.32 c -0.378,-0.084 -0.798,-0.105 -1.176,-0.105 -0.419,0 -0.819,0.021 -1.217,0.105 v 5.606 c 0,1.428 -0.61,2.457 -2.226,2.457 -0.776,0 -1.512,-0.231 -2.036,-0.546 V -6.32 c -0.379,-0.084 -0.799,-0.105 -1.197,-0.105 -0.378,0 -0.778,0.021 -1.176,0.105 v 8.672 c 0.798,0.692 2.603,1.574 4.682,1.574 1.427,0 2.519,-0.441 3.254,-1.155 0.82,0.63 2.037,1.155 3.38,1.155 C -1.47,3.926 0,2.163 0,0"
           style="fill:#171110;fill-opacity:1;fill-rule:nonzero;stroke:none"
           id="path58" />
      </g>
      <g
         id="g60"
         transform="translate(210.2781,38.7544)"
         clip-path="url(#clipPath1564)">
        <path
           d="M 0,0 C 0.756,0 1.449,0.126 2.058,0.315 V 2.457 C 1.406,2.729 0.63,2.855 -0.21,2.855 -1.386,2.855 -2.184,2.457 -2.184,1.512 -2.184,0.609 -1.47,0 0,0 M 4.389,4.598 V -0.84 C 3.213,-1.407 1.47,-1.827 -0.21,-1.827 c -2.939,0 -4.388,1.239 -4.388,3.234 0,2.057 1.785,3.17 4.2,3.149 0.944,0 1.763,-0.126 2.456,-0.378 v 0.567 c 0,1.197 -0.798,1.911 -2.394,1.911 -1.197,0 -2.205,-0.462 -2.771,-0.882 -0.588,0.294 -0.987,0.84 -1.092,1.533 0.588,0.567 2.099,1.406 4.031,1.406 2.625,0 4.557,-1.175 4.557,-4.115"
           style="fill:#171110;fill-opacity:1;fill-rule:nonzero;stroke:none"
           id="path62" />
      </g>
      <g
         id="g64"
         transform="translate(224.5144,38.0196)"
         clip-path="url(#clipPath1560)">
        <path
           d="m 0,0 c -0.608,-0.525 -1.616,-1.071 -2.98,-1.071 -2.143,0 -3.717,0.966 -3.717,3.36 v 4.808 h -1.701 c -0.063,0.315 -0.084,0.63 -0.084,0.986 0,0.315 0.021,0.63 0.084,0.945 h 1.701 v 2.646 c 0.398,0.084 0.798,0.105 1.197,0.105 0.398,0 0.776,-0.021 1.154,-0.105 V 9.028 h 3.717 c 0.084,-0.315 0.105,-0.63 0.105,-0.945 0,-0.335 -0.021,-0.65 -0.105,-0.986 H -4.346 V 2.834 c 0,-1.469 0.694,-1.847 1.68,-1.847 0.714,0 1.344,0.378 1.658,0.672 C -0.504,1.323 -0.084,0.651 0,0"
           style="fill:#171110;fill-opacity:1;fill-rule:nonzero;stroke:none"
           id="path66" />
      </g>
      <g
         id="g68"
         transform="translate(226.0496,37.2427)">
        <path
           d="m 0,0 v 9.931 c 0.398,0.084 0.798,0.105 1.197,0.105 0.377,0 0.797,-0.021 1.176,-0.105 V 0 C 1.994,-0.084 1.596,-0.105 1.197,-0.105 0.818,-0.105 0.398,-0.084 0,0 m -0.357,12.955 c 0,0.839 0.693,1.511 1.554,1.511 0.819,0 1.512,-0.672 1.512,-1.511 0,-0.84 -0.693,-1.512 -1.512,-1.512 -0.861,0 -1.554,0.672 -1.554,1.512"
           style="fill:#171110;fill-opacity:1;fill-rule:nonzero;stroke:none"
           id="path70" />
      </g>
      <g
         id="g72"
         transform="translate(238.7312,42.1978)"
         clip-path="url(#clipPath1556)">
        <path
           d="M 0,0 C 0,1.911 -1.092,3.233 -2.876,3.233 -4.66,3.233 -5.752,1.911 -5.752,0 c 0,-1.89 1.092,-3.191 2.876,-3.191 C -1.092,-3.191 0,-1.89 0,0 m -8.146,0 c 0,3.086 2.247,5.291 5.312,5.291 3.065,0 5.229,-2.184 5.229,-5.291 0,-3.065 -2.248,-5.27 -5.313,-5.27 -3.065,0 -5.228,2.163 -5.228,5.27"
           style="fill:#171110;fill-opacity:1;fill-rule:nonzero;stroke:none"
           id="path74" />
      </g>
      <g
         id="g76"
         transform="translate(252.5906,43.3526)"
         clip-path="url(#clipPath1552)">
        <path
           d="m 0,0 v -6.11 c -0.398,-0.084 -0.818,-0.105 -1.196,-0.105 -0.4,0 -0.777,0.021 -1.197,0.105 v 5.543 c 0,1.827 -0.882,2.52 -2.415,2.52 -0.923,0 -1.743,-0.273 -2.204,-0.546 V -6.11 c -0.379,-0.084 -0.799,-0.105 -1.197,-0.105 -0.378,0 -0.777,0.021 -1.176,0.105 V 2.562 C -8.503,3.296 -6.76,4.136 -4.619,4.136 -1.406,4.136 0,2.289 0,0"
           style="fill:#171110;fill-opacity:1;fill-rule:nonzero;stroke:none"
           id="path78" />
      </g>
      <g
         id="g80"
         transform="translate(266.5359,43.1426)"
         clip-path="url(#clipPath1548)">
        <path
           d="M 0,0 C 0,1.176 -0.609,2.373 -2.227,2.394 -3.695,2.394 -4.599,1.365 -4.767,0 Z m 2.246,-1.575 h -7.033 c 0.188,-1.637 1.196,-2.645 2.855,-2.645 1.449,0 2.288,0.567 2.94,1.029 0.524,-0.336 0.944,-1.008 1.028,-1.617 -0.84,-0.672 -2.141,-1.407 -4.136,-1.407 -2.982,0 -5.123,1.974 -5.123,5.228 0,3.087 2.162,5.312 4.996,5.312 2.667,0 4.557,-1.826 4.557,-4.493 0,-0.525 -0.021,-0.861 -0.084,-1.407"
           style="fill:#171110;fill-opacity:1;fill-rule:nonzero;stroke:none"
           id="path82" />
      </g>
      <g
         id="g84"
         transform="translate(280.3328,43.3526)"
         clip-path="url(#clipPath1544)">
        <path
           d="m 0,0 v -6.11 c -0.399,-0.084 -0.819,-0.105 -1.197,-0.105 -0.399,0 -0.778,0.021 -1.198,0.105 v 5.543 c 0,1.827 -0.88,2.52 -2.414,2.52 -0.923,0 -1.742,-0.273 -2.205,-0.546 V -6.11 c -0.377,-0.084 -0.797,-0.105 -1.196,-0.105 -0.378,0 -0.776,0.021 -1.176,0.105 v 8.672 c 0.882,0.734 2.624,1.574 4.767,1.574 C -1.407,4.136 0,2.289 0,0"
           style="fill:#171110;fill-opacity:1;fill-rule:nonzero;stroke:none"
           id="path86" />
      </g>
      <g
         id="g88"
         transform="translate(314.9001,38.7544)"
         clip-path="url(#clipPath1540)">
        <path
           d="M 0,0 C 0.756,0 1.448,0.126 2.058,0.315 V 2.457 C 1.407,2.729 0.63,2.855 -0.21,2.855 -1.386,2.855 -2.184,2.457 -2.184,1.512 -2.184,0.609 -1.47,0 0,0 M 4.388,4.598 V -0.84 C 3.212,-1.407 1.47,-1.827 -0.21,-1.827 c -2.939,0 -4.389,1.239 -4.389,3.234 0,2.057 1.786,3.17 4.2,3.149 0.945,0 1.763,-0.126 2.457,-0.378 v 0.567 c 0,1.197 -0.798,1.911 -2.394,1.911 -1.196,0 -2.204,-0.462 -2.771,-0.882 -0.588,0.294 -0.988,0.84 -1.092,1.533 0.588,0.567 2.099,1.406 4.031,1.406 2.624,0 4.556,-1.175 4.556,-4.115"
           style="fill:#171110;fill-opacity:1;fill-rule:nonzero;stroke:none"
           id="path90" />
      </g>
      <g
         id="g92"
         transform="translate(321.7888,37.2427)">
        <path
           d="m 0,0 v 13.773 c 0.378,0.084 0.776,0.105 1.176,0.105 0.399,0 0.819,-0.021 1.218,-0.105 V 0 C 2.016,-0.084 1.596,-0.105 1.196,-0.105 0.819,-0.105 0.42,-0.084 0,0"
           style="fill:#171110;fill-opacity:1;fill-rule:nonzero;stroke:none"
           id="path94" />
      </g>
      <g
         id="g96"
         transform="translate(334.4089,38.0196)"
         clip-path="url(#clipPath1536)">
        <path
           d="m 0,0 c -0.609,-0.525 -1.617,-1.071 -2.982,-1.071 -2.141,0 -3.716,0.966 -3.716,3.36 v 4.808 h -1.7 c -0.064,0.315 -0.084,0.63 -0.084,0.986 0,0.315 0.02,0.63 0.084,0.945 h 1.7 v 2.646 c 0.399,0.084 0.798,0.105 1.196,0.105 0.399,0 0.777,-0.021 1.155,-0.105 V 9.028 h 3.716 c 0.084,-0.315 0.106,-0.63 0.106,-0.945 0,-0.335 -0.022,-0.65 -0.106,-0.986 H -4.347 V 2.834 c 0,-1.469 0.693,-1.847 1.68,-1.847 0.714,0 1.344,0.378 1.659,0.672 C -0.504,1.323 -0.084,0.651 0,0"
           style="fill:#171110;fill-opacity:1;fill-rule:nonzero;stroke:none"
           id="path98" />
      </g>
      <g
         id="g100"
         transform="translate(342.5554,43.1426)"
         clip-path="url(#clipPath1532)">
        <path
           d="M 0,0 C 0,1.176 -0.608,2.373 -2.225,2.394 -3.695,2.394 -4.598,1.365 -4.766,0 Z m 2.247,-1.575 h -7.034 c 0.189,-1.637 1.197,-2.645 2.855,-2.645 1.45,0 2.289,0.567 2.94,1.029 0.525,-0.336 0.945,-1.008 1.029,-1.617 -0.84,-0.672 -2.141,-1.407 -4.137,-1.407 -2.98,0 -5.123,1.974 -5.123,5.228 0,3.087 2.163,5.312 4.998,5.312 2.666,0 4.556,-1.826 4.556,-4.493 0,-0.525 -0.02,-0.861 -0.084,-1.407"
           style="fill:#171110;fill-opacity:1;fill-rule:nonzero;stroke:none"
           id="path102" />
      </g>
      <g
         id="g104"
         transform="translate(353.3718,47.1529)"
         clip-path="url(#clipPath1528)">
        <path
           d="m 0,0 c 0,-0.756 -0.211,-1.512 -0.631,-2.058 -0.482,0.126 -0.986,0.189 -1.512,0.189 -0.776,0 -1.427,-0.147 -1.868,-0.399 V -9.91 c -0.378,-0.084 -0.798,-0.105 -1.196,-0.105 -0.399,0 -0.799,0.021 -1.197,0.105 v 8.797 c 0.756,0.672 2.289,1.428 4.199,1.428 C -1.344,0.315 -0.631,0.231 0,0"
           style="fill:#171110;fill-opacity:1;fill-rule:nonzero;stroke:none"
           id="path106" />
      </g>
      <g
         id="g108"
         transform="translate(364.0808,43.3526)"
         clip-path="url(#clipPath1524)">
        <path
           d="m 0,0 v -6.11 c -0.399,-0.084 -0.819,-0.105 -1.197,-0.105 -0.399,0 -0.778,0.021 -1.198,0.105 v 5.543 c 0,1.827 -0.88,2.52 -2.414,2.52 -0.923,0 -1.742,-0.273 -2.205,-0.546 V -6.11 c -0.377,-0.084 -0.797,-0.105 -1.196,-0.105 -0.378,0 -0.776,0.021 -1.176,0.105 v 8.672 c 0.882,0.734 2.624,1.574 4.767,1.574 C -1.407,4.136 0,2.289 0,0"
           style="fill:#171110;fill-opacity:1;fill-rule:nonzero;stroke:none"
           id="path110" />
      </g>
      <g
         id="g112"
         transform="translate(370.5701,38.7544)"
         clip-path="url(#clipPath1520)">
        <path
           d="M 0,0 C 0.756,0 1.448,0.126 2.058,0.315 V 2.457 C 1.407,2.729 0.63,2.855 -0.21,2.855 -1.386,2.855 -2.184,2.457 -2.184,1.512 -2.184,0.609 -1.47,0 0,0 M 4.388,4.598 V -0.84 C 3.212,-1.407 1.47,-1.827 -0.21,-1.827 c -2.939,0 -4.389,1.239 -4.389,3.234 0,2.057 1.786,3.17 4.2,3.149 0.945,0 1.763,-0.126 2.457,-0.378 v 0.567 c 0,1.197 -0.798,1.911 -2.394,1.911 -1.196,0 -2.204,-0.462 -2.771,-0.882 -0.588,0.294 -0.988,0.84 -1.092,1.533 0.588,0.567 2.099,1.406 4.031,1.406 2.624,0 4.556,-1.175 4.556,-4.115"
           style="fill:#171110;fill-opacity:1;fill-rule:nonzero;stroke:none"
           id="path114" />
      </g>
      <g
         id="g116"
         transform="translate(386.7605,43.3526)"
         clip-path="url(#clipPath1516)">
        <path
           d="m 0,0 v -6.11 c -0.399,-0.084 -0.819,-0.105 -1.197,-0.105 -0.399,0 -0.778,0.021 -1.198,0.105 v 5.543 c 0,1.827 -0.88,2.52 -2.414,2.52 -0.923,0 -1.742,-0.273 -2.205,-0.546 V -6.11 c -0.377,-0.084 -0.797,-0.105 -1.196,-0.105 -0.378,0 -0.776,0.021 -1.176,0.105 v 8.672 c 0.882,0.734 2.624,1.574 4.767,1.574 C -1.407,4.136 0,2.289 0,0"
           style="fill:#171110;fill-opacity:1;fill-rule:nonzero;stroke:none"
           id="path118" />
      </g>
      <g
         id="g120"
         transform="translate(388.7781,42.1768)"
         clip-path="url(#clipPath1512)">
        <path
           d="M 0,0 C 0,3.191 2.268,5.312 5.27,5.312 6.76,5.312 8.02,4.724 8.629,4.178 8.461,3.506 7.979,2.855 7.348,2.478 6.844,2.897 6.193,3.254 5.291,3.254 c -1.953,0 -2.877,-1.49 -2.877,-3.233 0,-1.701 0.902,-3.212 2.898,-3.212 1.175,0 1.784,0.483 2.204,0.839 0.609,-0.315 1.05,-0.881 1.259,-1.616 C 8.125,-4.598 6.865,-5.249 5.291,-5.249 2.12,-5.249 0,-3.317 0,0"
           style="fill:#171110;fill-opacity:1;fill-rule:nonzero;stroke:none"
           id="path122" />
      </g>
      <g
         id="g124"
         transform="translate(405.7664,43.1426)"
         clip-path="url(#clipPath1508)">
        <path
           d="M 0,0 C 0,1.176 -0.609,2.373 -2.227,2.394 -3.695,2.394 -4.599,1.365 -4.767,0 Z m 2.246,-1.575 h -7.033 c 0.188,-1.637 1.196,-2.645 2.855,-2.645 1.449,0 2.288,0.567 2.94,1.029 0.524,-0.336 0.944,-1.008 1.028,-1.617 -0.84,-0.672 -2.141,-1.407 -4.136,-1.407 -2.982,0 -5.123,1.974 -5.123,5.228 0,3.087 2.162,5.312 4.996,5.312 2.667,0 4.557,-1.826 4.557,-4.493 0,-0.525 -0.021,-0.861 -0.084,-1.407"
           style="fill:#171110;fill-opacity:1;fill-rule:nonzero;stroke:none"
           id="path126" />
      </g>
      <g
         id="g128"
         transform="translate(402.0743,101.0361)"
         clip-path="url(#clipPath1504)">
        <path
           d="m 0,0 c -2.265,1.745 -5.341,3.076 -9.229,3.995 -3.887,0.918 -8.831,1.377 -14.83,1.377 -2.938,0 -5.341,0.214 -7.208,0.643 -1.868,0.427 -3.351,1.01 -4.454,1.745 -1.101,0.734 -1.868,1.575 -2.295,2.525 -0.429,0.948 -0.643,1.943 -0.643,2.985 0,1.468 0.367,2.892 1.102,4.269 0.735,1.378 1.744,2.586 3.031,3.627 1.285,1.041 2.785,1.867 4.499,2.48 1.714,0.611 3.549,0.918 5.509,0.918 2.205,0 4.208,-0.138 6.015,-0.414 1.805,-0.275 3.535,-0.734 5.189,-1.377 1.653,-0.642 3.29,-1.485 4.913,-2.525 1.327,-0.853 2.732,-1.857 4.204,-2.996 v 12.28 c -1.868,1.136 -3.773,2.061 -5.72,2.745 -4.531,1.592 -9.397,2.388 -14.601,2.388 -3.672,0 -7.056,-0.597 -10.146,-1.791 -3.093,-1.193 -5.755,-2.786 -7.989,-4.774 -2.236,-1.991 -3.981,-4.287 -5.235,-6.888 -1.255,-2.603 -1.882,-5.279 -1.882,-8.034 0,-5.94 2.142,-10.377 6.428,-13.316 4.284,-2.938 10.56,-4.407 18.824,-4.407 2.449,0 4.898,-0.062 7.347,-0.184 2.447,-0.122 4.621,-0.503 6.52,-1.143 1.896,-0.641 3.443,-1.662 4.636,-3.064 1.195,-1.403 1.791,-3.415 1.791,-6.036 0,-2.135 -0.582,-3.979 -1.745,-5.534 -1.163,-1.556 -2.643,-2.939 -4.591,-3.841 -5.219,-2.416 -25.945,-1.365 -25.945,-1.365 l 4.768,-10.101 h 14.503 c 7.691,0 11.8,2.48 14.526,4.409 2.723,1.927 4.866,4.284 6.428,7.07 1.56,2.785 2.342,5.892 2.342,9.32 0,3.183 -0.446,6.045 -1.333,8.586 C 3.842,-3.888 2.265,-1.744 0,0"
           style="fill:#171110;fill-opacity:1;fill-rule:nonzero;stroke:none"
           id="path130" />
      </g>
      <path
         d="m 423.78,139.181 h 15.956 v 16.006 H 423.78 Z m 0,-20.939 h 15.956 v 16.006 H 423.78 Z m -20.94,0 h 15.954 v 16.006 H 402.84 Z m 0,21.009 h 15.954 v 16.006 H 402.84 Z"
         style="fill:#e52330;fill-opacity:1;fill-rule:nonzero;stroke:none"
         id="path132" />
      <g
         id="g134"
         transform="translate(260.6357,104.4296)"
         clip-path="url(#clipPath1500)">
        <path
           d="m 0,0 c -6.778,0 -12.996,-2.438 -17.828,-6.48 v 25.694 h 27.966 c 5.297,0 9.606,-4.31 9.606,-9.608 C 19.744,4.31 15.435,0 10.138,0 Z m 14.372,-9.564 c 8.786,1.771 15.372,9.817 15.372,19.17 0,10.388 -8.126,18.892 -18.351,19.544 l -39.231,0.101 v -68.457 h 10.01 v 11.482 C -17.768,-17.942 -9.797,-10 0,-10 c 0,0 2.266,-0.009 4.851,-0.005 l 0.671,-1.378 H 5.521 l 27.128,-55.751 h 9.735 z"
           style="fill:#171110;fill-opacity:1;fill-rule:nonzero;stroke:none"
           id="path136" />
      </g>
    </g>
  </g>
  <g
     id="g140"
     inkscape:groupmode="layer"
     inkscape:label="Page 2"
     transform="matrix(1.333333,0,0,-1.333333,654.2013,256.6107)" />
  <g
     id="g270"
     inkscape:groupmode="layer"
     inkscape:label="Page 3"
     transform="matrix(1.333333,0,0,-1.333333,1308.403,256.6107)" />
</svg>
